%TF.GenerationSoftware,KiCad,Pcbnew,9.0.6*%
%TF.CreationDate,2026-04-27T11:09:55+02:00*%
%TF.ProjectId,hemlarm,68656d6c-6172-46d2-9e6b-696361645f70,rev?*%
%TF.SameCoordinates,Original*%
%TF.FileFunction,Soldermask,Top*%
%TF.FilePolarity,Negative*%
%FSLAX46Y46*%
G04 Gerber Fmt 4.6, Leading zero omitted, Abs format (unit mm)*
G04 Created by KiCad (PCBNEW 9.0.6) date 2026-04-27 11:09:55*
%MOMM*%
%LPD*%
G01*
G04 APERTURE LIST*
%ADD10R,1.700000X1.700000*%
%ADD11C,1.700000*%
%ADD12C,1.600000*%
G04 APERTURE END LIST*
D10*
%TO.C,J4*%
X88000000Y-96225000D03*
D11*
X88000000Y-98765000D03*
%TD*%
D12*
%TO.C,R2*%
X99810000Y-96500000D03*
X92190000Y-96500000D03*
%TD*%
D10*
%TO.C,J2*%
X94500000Y-62500000D03*
D11*
X94500000Y-65040000D03*
X94500000Y-67580000D03*
X94500000Y-70120000D03*
%TD*%
D10*
%TO.C,J1*%
X105500000Y-60100000D03*
D11*
X108040000Y-60100000D03*
X105500000Y-62640000D03*
X108040000Y-62640000D03*
X105500000Y-65180000D03*
X108040000Y-65180000D03*
X105500000Y-67720000D03*
X108040000Y-67720000D03*
X105500000Y-70260000D03*
X108040000Y-70260000D03*
X105500000Y-72800000D03*
X108040000Y-72800000D03*
X105500000Y-75340000D03*
X108040000Y-75340000D03*
X105500000Y-77880000D03*
X108040000Y-77880000D03*
X105500000Y-80420000D03*
X108040000Y-80420000D03*
X105500000Y-82960000D03*
X108040000Y-82960000D03*
X105500000Y-85500000D03*
X108040000Y-85500000D03*
X105500000Y-88040000D03*
X108040000Y-88040000D03*
X105500000Y-90580000D03*
X108040000Y-90580000D03*
X105500000Y-93120000D03*
X108040000Y-93120000D03*
X105500000Y-95660000D03*
X108040000Y-95660000D03*
X105500000Y-98200000D03*
X108040000Y-98200000D03*
X105500000Y-100740000D03*
X108040000Y-100740000D03*
X105500000Y-103280000D03*
X108040000Y-103280000D03*
X105500000Y-105820000D03*
X108040000Y-105820000D03*
X105500000Y-108360000D03*
X108040000Y-108360000D03*
%TD*%
D12*
%TO.C,R1*%
X100500000Y-78500000D03*
X92880000Y-78500000D03*
%TD*%
D10*
%TO.C,J3*%
X88500000Y-78725000D03*
D11*
X88500000Y-81265000D03*
%TD*%
M02*
