M48
; DRILL file {KiCad 9.0.6} date 2026-04-27T11:10:12+0200
; FORMAT={-:-/ absolute / metric / decimal}
; #@! TF.CreationDate,2026-04-27T11:10:12+02:00
; #@! TF.GenerationSoftware,Kicad,Pcbnew,9.0.6
; #@! TF.FileFunction,Plated,1,2,PTH
FMAT,2
METRIC
; #@! TA.AperFunction,Plated,PTH,ComponentDrill
T1C0.800
; #@! TA.AperFunction,Plated,PTH,ComponentDrill
T2C1.000
%
G90
G05
T1
X92.19Y-96.5
X92.88Y-78.5
X99.81Y-96.5
X100.5Y-78.5
T2
X88.0Y-96.225
X88.0Y-98.765
X88.5Y-78.725
X88.5Y-81.265
X94.5Y-62.5
X94.5Y-65.04
X94.5Y-67.58
X94.5Y-70.12
X105.5Y-60.1
X105.5Y-62.64
X105.5Y-65.18
X105.5Y-67.72
X105.5Y-70.26
X105.5Y-72.8
X105.5Y-75.34
X105.5Y-77.88
X105.5Y-80.42
X105.5Y-82.96
X105.5Y-85.5
X105.5Y-88.04
X105.5Y-90.58
X105.5Y-93.12
X105.5Y-95.66
X105.5Y-98.2
X105.5Y-100.74
X105.5Y-103.28
X105.5Y-105.82
X105.5Y-108.36
X108.04Y-60.1
X108.04Y-62.64
X108.04Y-65.18
X108.04Y-67.72
X108.04Y-70.26
X108.04Y-72.8
X108.04Y-75.34
X108.04Y-77.88
X108.04Y-80.42
X108.04Y-82.96
X108.04Y-85.5
X108.04Y-88.04
X108.04Y-90.58
X108.04Y-93.12
X108.04Y-95.66
X108.04Y-98.2
X108.04Y-100.74
X108.04Y-103.28
X108.04Y-105.82
X108.04Y-108.36
M30
